<?xml version="1.0" encoding="utf-8"?>
<!-- Generator: Adobe Illustrator 23.0.0, SVG Export Plug-In . SVG Version: 6.00 Build 0)  -->
<svg version="1.1" id="Слой_1" xmlns="http://www.w3.org/2000/svg" xmlns:xlink="http://www.w3.org/1999/xlink" x="0px" y="0px"
	 viewBox="0 0 1330 346" style="enable-background:new 0 0 1330 346;" xml:space="preserve">
<style type="text/css">
	.st0{display:none;}
	.st1{display:inline;}
</style>
<g>
	<path d="M215.517,116.867c0,0.328-0.168,0.657-0.489,0.978c-0.329-0.321-0.817-0.65-1.467-0.978l-1.467,2.445l0.978,0.978
		l-8.313,3.423l0.978,1.467l-3.423,1.956h0.978c-11.736,3.262-19.239,6.846-22.494,10.758c-2.284,1.956-6.036,4.401-11.247,7.335
		l1.956,1.956c-2.284,0.329-5.868,1.146-10.758,2.445l1.956,0.489c-5.219,1.635-9.131,3.262-11.736,4.89h0.489
		c-3.263,0.329-8.152,1.468-14.67,3.423l1.467,0.489c-5.218,0.978-14.67,3.912-28.362,8.802
		c-10.437,2.935-26.246,7.664-47.433,14.182c-4.241,8.152-7.335,18.75-9.291,31.785c-1.635,11.086-3.263,22.004-4.89,32.763
		l-7.335,34.719c-1.956,8.802-4.729,18.911-8.313,30.317c-1.307,0-2.124-0.648-2.445-1.955c0-0.321,0-1.467,0-3.424
		c0-1.627-0.329-2.605-0.978-2.934c3.255-19.56,7.167-49.061,11.736-88.509h-0.978c-3.912,20.538-9.948,51.513-18.093,92.91
		c-2.934,12.386-4.401,17.765-4.401,16.137l-1.467,1.468c0-1.307-0.329-1.957-0.978-1.957c-0.657,0-1.146,0.321-1.467,0.979
		c-8.802-4.24-12.554-9.948-11.247-17.115c3.912-24.771,10.59-62.104,20.049-111.98c-1.635,0.656-3.423,0.978-5.379,0.978
		c-10.758,0-16.137-7.655-16.137-22.983c0-1.955,0.405-3.828,1.222-5.623c0.81-1.788,2.689-4.646,5.624-8.558
		c3.255,0,8.145-1.467,14.67-4.401c-0.657-0.978-0.817-2.276-0.489-3.912c1.299-6.189,3.583-9.696,6.846-10.513
		c3.255-0.81,5.05-2.521,5.379-5.135c1.956-6.846,4.233-17.436,6.846-31.785c-7.503,0-11.736-0.489-12.714-1.467
		c-6.525-6.846-9.78-15.809-9.78-26.895c0-3.583,0.321-7.167,0.978-10.758l0.489-1.467l5.868-5.379h2.445
		c2.277,0,5.784-0.565,10.514-1.711c4.722-1.139,8.229-1.711,10.513-1.711l5.868-6.846c3.255,0,4.89,0.978,4.89,2.934
		c0.978,0.329,1.956,0.489,2.934,0.489c1.956,0,4.646-0.649,8.068-1.956c3.423-1.299,5.944-1.956,7.58-1.956
		c-0.329-2.605,0.649-7.007,2.934-13.203c-0.328-2.605,1.956-5.211,6.846-7.824c2.277,1.307,3.667,3.667,4.157,7.091
		c0.489,3.423,0.894,6.602,1.222,9.535l1.956,0.489c1.627-0.321,14.67-2.117,39.12-5.379l-0.489,0.489
		c8.474-1.299,16.947-1.956,25.428-1.956c12.057,0,23.632,1.307,34.719,3.912c2.605,0.329,6.357,1.307,11.247,2.934l-1.467,2.934
		h-1.956c1.299,0.657,1.788,1.306,1.467,1.956c-0.328,0.328-0.817,0.489-1.467,0.489l-0.978-0.978l-1.467,0.978l1.467,1.956
		l1.467-0.978c-1.635,0.978-3.591,2.773-5.868,5.379c-0.329-0.321-0.978-0.489-1.956-0.489s-2.285,0.489-3.912,1.467
		c-1.635,0.978-2.934,2.445-3.912,4.401l-2.445-0.489l-1.956,1.956c-0.657,0.978-0.657,2.445,0,4.401h-0.489l0.978,1.467h-1.467
		c-0.978,0-1.956,0.168-2.934,0.489l0.978,0.978c-6.846,1.307-17.283,3.751-31.296,7.335c-0.978,1.307-3.591,1.956-7.824,1.956
		c-0.978,0-1.956,0.489-2.934,1.467c-6.525,0.978-16.137,2.613-28.851,4.89c-4.241,1.307-10.269,3.102-18.093,5.379l-2.934,1.956
		l-7.335,27.873c21.187-4.233,37.324-6.357,48.411-6.357c3.583,0.329,9.291-0.161,17.115-1.467l1.956,0.978l10.758-1.467
		c11.736,0,25.917,0.657,42.543,1.956c0.321,0.329,0.321,0.657,0,0.978c-0.978,0.329-1.467,0.657-1.467,0.978
		c-0.329,0.978,3.744,1.467,12.225,1.467C213.072,116.378,214.21,116.546,215.517,116.867z"/>
	<path d="M425.78,208.311l-1.956,0.978l1.467,1.467l-3.423,0.489l0.489-0.489v-0.978l-2.445,1.467v-0.979l-0.489,0.489l-1.467-0.978
		l-1.467,0.488l1.467,1.957c0.321,0-1.306,0-4.89,0c-0.329,0-0.657,0-0.978,0l0.978,0.978h-2.934v0.489
		c-0.329,0.656,0,1.146,0.978,1.467h-3.912v-0.489h1.467l-0.489-0.978l0.489-0.489c0-1.3-0.328-1.956-0.978-1.956
		c1.299,0-0.328,1.307-4.89,3.912c0.649-0.65,1.627-2.117,2.934-4.401c-3.591,0.657-8.97,2.124-16.137,4.401l-0.489-1.467
		l-1.956,0.488l-2.445-0.978l-4.401,1.467v-0.978l-2.934,1.467c-0.657-0.321-1.467-0.489-2.445-0.489h-1.956l-1.467,1.467
		c1.299-0.321-0.168-0.489-4.401-0.489c-0.978,0-1.795,0.329-2.445,0.979c-0.978-0.979-1.956-0.811-2.934,0.488
		c-0.978,1.307-1.635,1.957-1.956,1.957c-0.657,0-0.978-0.489-0.978-1.467h-1.956c-2.613,0.328-6.036,0.328-10.269,0
		c-0.978,0.656-1.795,0.978-2.445,0.978c-1.307,0-2.773-0.649-4.401-1.956l-3.912,0.979c0.321,1.955,2.277,2.934,5.868,2.934
		c0.649,0.328,1.299,0.817,1.956,1.467h0.489l-1.956-0.488c-0.978,0.328-2.285,0.816-3.912,1.467c0,0.656,0.489,1.307,1.467,1.955
		h1.956l1.467,0.489h-3.423v1.468c-0.657,0-1.467-0.161-2.445-0.49c-0.978-0.32-1.635-0.488-1.956-0.488
		c-1.307,0-1.635,1.307-0.978,3.912l-3.912-1.467l-0.978,0.488l0.489,0.979c-2.284,0-3.912-0.16-4.89-0.489
		c-1.635,0-3.423,0.657-5.379,1.956c-1.956,0.657-3.912,0.489-5.868-0.488c-1.956,0.328-4.89,0.816-8.802,1.467
		c-1.306,1.307-2.773,1.955-4.401,1.955c-0.657,0-1.635-0.244-2.934-0.732c-1.307-0.49-2.284-0.734-2.934-0.734
		c-1.306,0-2.773,0.657-4.401,1.956l0.489-0.489c-1.635,0-3.263,0.658-4.89,1.957c-0.657,0-2.04,0.168-4.157,0.488
		c-2.124,0.328-3.667,0.489-4.646,0.489l0.489,0.978l-1.956-1.467v1.467c-2.934,1.635-6.525,2.613-10.758,2.935l-10.758,1.467
		l1.467,0.978c0.978-0.648,1.956-0.978,2.934-0.978c0.65,0,1.299,0.168,1.956,0.489v1.955l0.489-1.467l1.467,0.979
		c-1.956,0.657-9.62,0.979-22.983,0.979c-1.307,1.635-4.729,12.064-10.269,31.295c-4.569,17.283-7.503,29.02-8.802,35.209
		c-0.978,2.934-2.04,6.027-3.179,9.291c-1.146,3.254-3.178,5.211-6.112,5.867c-2.285-0.978-3.423-2.773-3.423-5.379
		c0,1.299,0.978-2.613,2.934-11.736l0.489-2.934h-0.489c-0.978,0-2.445,2.201-4.401,6.602s-2.934,7.412-2.934,9.047l-0.978,0.978
		c-0.329-0.978-1.307-2.444-2.934-4.401h-3.423l-1.467-4.89l2.445-8.802c3.912-17.604,6.357-39.609,7.335-66.016
		c1.627-40.098,2.445-61.935,2.445-65.525c1.627-17.275,3.423-43.032,5.379-77.262c-1.307-2.605-1.956-6.846-1.956-12.714
		c-1.307-6.518,0-11.568,3.912-15.159c0.649-2.934,2.445-6.678,5.379-11.247c2.277,0.657,3.744,2.124,4.401,4.401
		c-0.329,1.307,0,2.445,0.978,3.423c2.277-0.978,4.806-2.032,7.58-3.178c2.766-1.139,4.317-2.69,4.646-4.646
		c0.321-1.956,0.733-4.562,1.222-7.824c0.489-3.255,2.361-4.89,5.624-4.89c1.956,0,3.255,1.711,3.912,5.135
		c0.649,3.423,1.788,5.134,3.423,5.134c0.649-0.321,1.627-0.649,2.934-0.978c1.956-2.277,8.634-5.05,20.049-8.313
		c12.714-3.912,20.698-7.006,23.961-9.291c-0.329,1.307,0,1.956,0.978,1.956c0.321-0.321,0.649-0.649,0.978-0.978
		c0.321-0.321,1.788-0.489,4.401-0.489c0.649,0,1.467-0.649,2.445-1.956c1.956-0.321,5.54-1.467,10.758-3.423
		c4.233-1.628,7.656-2.445,10.269-2.445c0.321-0.321,0.81-0.649,1.467-0.978c0.978,0.657,1.627,0.978,1.956,0.978
		c0.649,0,1.299-0.321,1.956-0.978l0.978,0.978c1.299-1.956,4.89-3.423,10.758-4.401l0.489,1.467l2.934-1.956
		c3.583,0.329,8.962,0,16.137-0.978l5.868-0.489l1.956,0.978c5.868,0,9.123-0.161,9.78-0.489v0.978l2.445-0.489l-1.956,0.978
		l0.978,0.489c2.934,0,7.335-0.16,13.203-0.489l0.489-0.489l1.956,2.445l1.467-0.978l0.489,1.956l-0.978,0.489l3.423,2.934
		l-1.956,1.467v5.379c-1.635,0-3.423,0.329-5.379,0.978c0,0.657,0,1.306,0,1.956l1.467-0.978c0.321,0.329,0.565,1.063,0.733,2.201
		c0.161,1.146,0.733,1.711,1.711,1.711l-0.489,0.978c0.321,0.329,0.489,1.307,0.489,2.934c0.321,2.613,1.627,6.036,3.912,10.269
		c-0.657,0.657-0.978,1.307-0.978,1.956c-0.329,0.657-0.245,1.391,0.245,2.201c0.489,0.817,0.733,1.551,0.733,2.2
		c-1.307,4.89-7.335,14.51-18.093,28.851c-10.758,14.349-18.582,23.151-23.472,26.406v0.978c-0.329,0.978-1.391,1.796-3.179,2.445
		c-1.795,0.657-2.857,1.635-3.178,2.934c-5.219,6.846-9.948,10.758-14.181,11.736c-1.307,0.978-2.773,2.773-4.401,5.379
		l-0.978-0.489c-2.934,2.613-7.664,5.547-14.181,8.802c0,0.329-2.773,2.773-8.313,7.335l-0.978-0.489
		c-3.912,2.613-7.748,5.059-11.491,7.336c-3.751,2.284-9.215,5.547-16.382,9.779c2.277,0.979,4.233,1.307,5.868,0.979
		c1.627,0.978,2.934,1.307,3.912,0.978c2.934,0.978,3.912,0.978,2.934,0l1.467,1.956l3.423-1.467
		c3.255,0.656,6.189,1.307,8.802,1.956l2.934-0.489l-0.489,1.467v0.489c0.649-0.978,1.788-1.467,3.423-1.467
		c0.978,0,2.2,0.168,3.667,0.489c1.467,0.328,2.689,0.488,3.667,0.488c0.978,1.635,1.299,2.445,0.978,2.445l-0.489-0.489
		l1.956-0.978l-0.489,1.467c1.956-0.32,4.722-0.489,8.313-0.489l1.467,1.956l2.934-0.488l0.978,1.955l1.956-1.467
		c0.321,0.657,0.978,0.818,1.956,0.489l0.978,1.467l2.445,0.978l1.956-0.978l0.978,1.468l2.934-0.979l-0.489,1.467
		c1.956,0,3.583,0.328,4.89,0.979l0.978-1.467c0,1.306,1.467,1.955,4.401,1.955c0.321,0,0.978,0.244,1.956,0.734
		c0.978,0.488,3.583,0.732,7.824,0.732c1.956,2.613,5.211,3.424,9.78,2.445c1.627,0.657,2.934,1.307,3.912,1.956l0.489-1.467v0.978
		h1.467v0.489h0.489c0.649,0,1.467,0.413,2.445,1.223c0.978,0.817,1.956,1.222,2.934,1.222c0.649,0,1.299-0.488,1.956-1.467
		l-0.489,1.467c2.605,0.658,5.211,0.658,7.824,0c0.321,0.658,0.978,0.979,1.956,0.979l-0.978,0.489v0.978l0.978,0.489l1.956-1.956
		l-0.489,0.979l-0.489,1.467c4.562,0,7.167,0.979,7.824,2.934l0.489-0.488c-0.329,0-0.489-0.161-0.489-0.489
		c0-0.321,0.16-0.649,0.489-0.978c0.649,0.656,1.299,1.306,1.956,1.955c0.649,0,2.116-0.16,4.401-0.488l0.978,0.488
		c1.299,1.307,1.139,2.285-0.489,2.934L425.78,208.311z M364.166,61.61c-10.108,3.263-16.465,4.729-19.071,4.401
		c-1.635,1.635-8.481,4.24-20.538,7.824h-0.489c-0.657,0-0.978,0.329-0.978,0.978c-15.327,4.569-37.653,12.554-66.993,23.961
		c-1.635,0.978-2.689,2.445-3.178,4.401c-0.489,1.956-0.902,5.135-1.223,9.536c-0.329,4.401-0.657,7.664-0.978,9.78
		c-0.329,2.124-1.307,5.302-2.934,9.535c-1.635,4.241-2.773,7.503-3.423,9.78c-1.956,9.13-1.795,13.692,0.489,13.692l3.912-0.979
		c0.978-2.934,3.583-14.669,7.824-35.208c3.255-14.67,6.678-22.005,10.269-22.005c1.627,1.635,2.445,5.868,2.445,12.714
		c0,11.415-1.307,23.312-3.912,35.697c1.299-0.649,3.423-1.299,6.357-1.956c27.384-14.67,49.221-31.296,65.526-49.878
		c5.54-6.188,10.758-11.568,15.648-16.137c0.978-2.605,2.934-5.379,5.868-8.313l7.335-7.335L364.166,61.61z M410.132,211.244
		c-1.307-0.649-2.445-0.979-3.423-0.979C407.359,210.595,408.497,210.923,410.132,211.244z M415.511,210.755l-1.467-1.467
		l0.489-1.956l-0.978,2.934l0.489-0.488L415.511,210.755z"/>
	<path d="M472.721,89.972l-0.978,0.978v0.978c0,2.284-0.978,5.547-2.934,9.78c-3.263,7.824-6.686,19.728-10.269,35.697
		c-2.613,4.241-4.569,9.131-5.868,14.67c-0.329,2.934-2.124,7.663-5.379,14.181c-3.263,6.525-7.014,18.582-11.247,36.186
		l-0.978-0.488c-2.284,8.152-4.08,15.487-5.379,22.005c-0.657,1.636-1.467,3.912-2.445,6.847h-0.489l-1.467,7.334l-0.978,1.957
		v3.422v-1.955c-0.657,0.978-1.146,1.955-1.467,2.934c0,0.328,0.161,1.307,0.489,2.934l0.489-1.955l-1.467,1.955
		c0.978,0,1.299,0.818,0.978,2.445l-0.978,0.488l-9.291,40.099l-1.467,1.956l-2.934,3.912l-5.379-1.467
		c-1.956,0.656-3.102,1.635-3.423,2.934c0,0.657,0.161,1.467,0.489,2.445c0,1.307,0,2.284,0,2.934
		c-0.329,0.979-1.146,2.125-2.445,3.424c-2.613-0.65-4.974-0.979-7.09-0.979c-2.124,0-3.912-1.956-5.379-5.868
		c-1.467-3.912-2.529-6.188-3.179-6.846c0-2.935,0.321-6.188,0.978-9.78c3.583-14.013,8.634-35.04,15.159-63.081l6.357-29.829
		c4.562-25.1,11.736-62.752,21.516-112.959c0.649-2.605,1.222-6.517,1.711-11.736c0.489-5.211,1.054-9.291,1.711-12.225
		c1.299-5.211,2.934-7.824,4.89-7.824l2.445,0.489c1.627,1.956,3.255,5.868,4.89,11.736c1.627,5.868,3.744,9.78,6.357,11.736
		c1.299-2.934,1.872-6.922,1.711-11.98c-0.168-5.051,0.077-8.558,0.733-10.514c0-0.978,0.734-1.543,2.201-1.711
		c1.467-0.161,2.521-0.565,3.179-1.223c0.978,0,1.956,0.489,2.934,1.467s1.627,1.635,1.956,1.956
		c-0.329,2.284,0.161,4.813,1.467,7.579c1.299,2.774,3.094,4.325,5.379,4.646C473.042,70.091,474.677,80.192,472.721,89.972z
		 M435.557,203.909c0,2.284-0.818,6.196-2.445,11.735C433.433,213.039,434.25,209.127,435.557,203.909z"/>
	<path d="M678.096,161.366c-0.656,2.612-1.795,5.218-3.422,7.823c-2.613,4.241-6.357,9.131-11.248,14.67l-0.488-0.488
		c-1.635,3.263-3.264,5.379-4.891,6.357c-1.635,2.613-3.262,4.568-4.891,5.867l0.979,0.979
		c-11.086,10.108-22.174,20.377-33.252,30.807c-13.043,11.415-24.939,20.538-35.697,27.385v0.978
		c-1.307,0.657-2.773,1.635-4.4,2.934l-0.488-0.978c-0.658,0.656-1.469,2.124-2.445,4.4c-13.371,9.131-26.896,18.094-40.588,26.896
		c-15.327,9.78-29.668,16.954-43.032,21.517c-4.569,1.627-7.259,2.689-8.068,3.178c-0.818,0.489-3.018,2.521-6.602,6.112
		c-0.978,0.649-1.795,0.978-2.445,0.978c-0.657,0-1.467,0-2.445,0c-0.978-0.328-1.711-0.572-2.201-0.732
		c-0.489-0.168-2.857-1.391-7.09-3.668c-2.934-1.635-3.912-3.591-2.934-5.867c-2.934-9.123-3.583-17.604-1.956-25.429
		c0.321-1.956,1.467-3.423,3.423-4.401c6.189-3.912,15.808-9.451,28.851-16.625c1.299-1.299,3.583-3.096,6.846-5.38l0.489,1.956
		l0.489-1.956l3.912-1.956v-0.488c1.299-2.277,3.583-4.563,6.846-6.846c4.561-2.605,7.411-4.318,8.557-5.135
		c1.139-0.811,3.011-1.873,5.624-3.179c-0.329-0.321-0.489-0.649-0.489-0.978c2.277-0.322,3.094-0.979,2.445-1.957
		c3.913-2.276,7.006-3.912,9.292-4.89c0.32-0.978,5.539-5.7,15.648-14.181l15.158-13.203c6.846-5.539,14.99-14.014,24.449-25.428
		c10.758-12.715,18.414-21.349,22.984-25.918l0.977-2.934c-0.656,0-2.934,0.657-6.846,1.956c-2.613,0.978-4.729,1.307-6.357,0.978
		c-7.822,2.613-19.07,7.336-33.74,14.182l-2.445-0.979l-0.979,2.445c-8.152,5.547-15.977,9.948-23.471,13.203
		c-3.592,2.613-8.482,5.059-14.67,7.335c-7.174,2.935-14.67,8.313-22.494,16.137c-0.978,0-2.04,0.733-3.178,2.2
		c-1.146,1.468-2.201,2.369-3.179,2.689c-0.978,1.957-2.613,4.57-4.89,7.824l-0.978,2.935c-0.978,4.24-0.657,6.846,0.978,7.823
		c-1.307,0.329-2.613,0.49-3.912,0.49c-3.591,0-8.481-1.957-14.67-5.869c-3.912-8.802-5.868-17.764-5.868-26.895
		c-5.547-5.539-6.525-16.626-2.934-33.252c5.868-27.056,16.787-53.301,32.763-78.729c0.649-1.627,2.277-3.912,4.89-6.846
		c-0.657-2.605,0.81-5.05,4.401-7.335c1.299-1.299,2.934-3.912,4.89-7.824c3.583-4.562,8.962-11.247,16.137-20.049v-0.978v-0.489
		c0.65-2.605,7.167-9.612,19.56-21.027c12.385-11.408,20.699-18.253,24.939-20.538h0.977c2.277,0,4.234,0.978,5.869,2.934
		c1.627,1.956,3.254,3.912,4.891,5.868l1.955,6.357c2.277-0.649,5.699-1.956,10.27-3.912l-1.467-0.978
		c3.254-1.627,5.699-2.445,7.334-2.445v0.978v0.489c0.65,0,1.299,0,1.957,0c-0.658,0,2.443,1.635,9.291,4.89
		c5.867,8.481,12.713,18.911,20.537,31.296c-0.328,2.613,0.734,6.112,3.178,10.513c2.445,4.401,3.34,8.237,2.691,11.492
		l-1.957,0.489l-0.488,2.934h-4.402l-1.467,1.467c-5.219-0.978-8.641-4.401-10.268-10.269c-1.637-5.868-4.402-9.78-8.314-11.736
		c-6.195,0.978-10.758,3.752-13.691,8.313c-8.803,6.525-16.955,14.181-24.449,22.983c-7.824,4.569-15.977,13.203-24.451,25.917
		c-11.086,16.305-18.092,25.917-21.027,28.851c-0.978,4.569-2.284,7.014-3.911,7.335c0.321,0.657,0.81,0.978,1.467,0.978
		c0.321,0,1.054-0.565,2.2-1.711c1.139-1.138,2.361-1.543,3.668-1.222l3.912-0.978l1.467-0.978l-0.979-0.978h0.49l0.488,0.978
		c1.627-0.649,4.072-1.467,7.334-2.445c0-0.649,0.566-1.299,1.713-1.956c1.139-0.649,2.031-1.299,2.689-1.956
		c0.32,0.657,0.648,0.978,0.979,0.978c2.275-1.627,3.742-2.445,4.4-2.445l2.445,1.956l-0.49-1.467l6.846-1.956l0.979,0.489
		l0.49-2.445l1.955-0.978l2.445-1.467l-0.488,1.467c1.627,0,3.666-0.978,6.111-2.934s4.967-2.934,7.58-2.934
		c0,0.329,0.16,0.489,0.488,0.489c1.957,0,2.934-0.161,2.934-0.489c2.277-0.649,5.869-2.445,10.758-5.379
		c0.65,0.657,2.117,0.978,4.402,0.978c5.539-2.605,10.27-4.233,14.18-4.89c0.65-1.627,1.301-2.445,1.957-2.445
		c0.32,0,0.734,0.245,1.223,0.733c0.488,0.489,0.895,0.733,1.223,0.733c0.648,0,1.467-0.649,2.445-1.956h0.977
		c0.979,0,2.201-0.565,3.668-1.711c1.467-1.138,2.521-1.711,3.18-1.711c0.648,0,1.299,0.329,1.955,0.978
		c5.211-0.978,12.057-3.094,20.537-6.357c1.629-0.978,3.096-1.467,4.402-1.467l1.955,0.489c1.299,2.934,3.256,7.175,5.869,12.714
		l-0.979,1.956c-0.328,1.635,0.32,3.591,1.955,5.868c1.629,2.285,2.277,4.241,1.957,5.868c2.277,0.657,4.072,2.284,5.379,4.89
		c-0.658,2.285-1.467,6.036-2.445,11.247c-9.779,11.086-21.355,24.129-34.719,39.12c-2.934,2.935-6.525,6.686-10.758,11.248v-0.49
		c-10.758,9.459-18.91,18.911-24.451,28.363l-0.977-0.49c-2.285,3.264-5.059,5.379-8.314,6.357
		c-2.283,2.613-5.379,6.525-9.291,11.736c-1.305,0-2.773,0.979-4.4,2.934c-1.635,1.956-2.934,3.103-3.912,3.424
		c-3.912,3.59-7.664,7.174-11.246,10.758c-4.891,4.24-9.291,7.014-13.203,8.313c-3.592,2.613-8.152,7.014-13.693,13.203
		c2.936-0.979,6.848-3.255,11.736-6.846h1.467c5.869-5.211,14.502-12.057,25.918-20.539c1.627-2.276,3.584-4.072,5.867-5.379
		c2.277-1.299,5.211-3.743,8.803-7.334c1.299-0.65,2.605-1.628,3.912-2.935c1.955,0,3.5-0.894,4.645-2.689
		c1.139-1.788,2.445-3.011,3.912-3.667c1.467-0.65,3.5-2.117,6.113-4.401c0-1.299,0.979-2.2,2.934-2.689
		c1.957-0.489,2.766-1.383,2.445-2.689c0.65-0.321,3.912-3.255,9.779-8.802c1.957-0.321,3.5-1.467,4.646-3.424
		c1.139-1.955,2.85-3.254,5.135-3.912c1.299-1.299,3.254-3.254,5.867-5.867c1.299-0.65,4.891-4.072,10.758-10.27
		c0.322-1.627,3.256-5.211,8.803-10.758c5.539-5.539,9.291-11.896,11.246-19.07l1.467-3.912l3.912-0.489
		C678.416,154.688,678.746,157.783,678.096,161.366z M491.787,139.361v-1.956c-1.956,3.263-3.752,5.547-5.379,6.846
		c0.321,0,0.65,0.489,0.978,1.467c0,0.329-0.328,0.978-0.978,1.956l-0.978,0.489c-0.657,0.657-1.146,1.146-1.467,1.467
		c0,0.329,0.489,0.489,1.467,0.489c-1.635,1.956-2.613,3.591-2.934,4.89c0,0.978,0,2.613,0,4.89
		c-0.329,1.307-1.146,2.773-2.445,4.401l1.467,0.978L491.787,139.361z M500.1,119.801c-0.657,0.329-1.307,1.796-1.956,4.401
		c-0.329,0.657-1.307,1.146-2.934,1.467c-1.635,3.263-2.613,6.036-2.934,8.313c-0.329,0.657-0.168,1.467,0.489,2.445
		c1.627-1.627,2.934-5.21,3.912-10.758h0.978L500.1,119.801z M507.435,106.109c-0.657,1.307-1.796,3.102-3.423,5.379
		C504.99,110.189,506.128,108.394,507.435,106.109z M522.594,80.681c-2.934,4.24-5.708,7.174-8.313,8.802
		c0.321,0.657,0.489,1.146,0.489,1.467c-0.329,0.657-0.902,1.551-1.711,2.689c-0.818,1.146-1.223,2.04-1.223,2.689
		c0,0.657,0,1.146,0,1.467C515.748,92.585,519.332,86.877,522.594,80.681z"/>
	<path d="M899.12,161.366c-0.657,2.612-1.796,5.218-3.423,7.823c-2.613,4.241-6.357,9.131-11.247,14.67l-0.489-0.488
		c-1.635,3.263-3.263,5.379-4.89,6.357c-1.636,2.613-3.263,4.568-4.891,5.867l0.979,0.979
		c-11.087,10.108-22.174,20.377-33.252,30.807c-13.043,11.415-24.939,20.538-35.697,27.385v0.978
		c-1.307,0.657-2.773,1.635-4.401,2.934l-0.488-0.978c-0.657,0.656-1.468,2.124-2.445,4.4
		c-13.371,9.131-26.896,18.094-40.587,26.896c-15.327,9.78-29.669,16.954-43.032,21.517c-4.569,1.627-7.259,2.689-8.068,3.178
		c-0.817,0.489-3.019,2.521-6.602,6.112c-0.979,0.649-1.796,0.978-2.445,0.978c-0.657,0-1.467,0-2.444,0
		c-0.979-0.328-1.712-0.572-2.201-0.732c-0.488-0.168-2.857-1.391-7.09-3.668c-2.935-1.635-3.912-3.591-2.935-5.867
		c-2.934-9.123-3.583-17.604-1.956-25.429c0.321-1.956,1.467-3.423,3.423-4.401c6.189-3.912,15.809-9.451,28.852-16.625
		c1.299-1.299,3.583-3.096,6.846-5.38l0.489,1.956l0.489-1.956l3.911-1.956v-0.488c1.3-2.277,3.584-4.563,6.847-6.846
		c4.562-2.605,7.411-4.318,8.558-5.135c1.138-0.811,3.01-1.873,5.623-3.179c-0.328-0.321-0.489-0.649-0.489-0.978
		c2.277-0.322,3.095-0.979,2.445-1.957c3.912-2.276,7.007-3.912,9.291-4.89c0.321-0.978,5.539-5.7,15.648-14.181l15.158-13.203
		c6.847-5.539,14.991-14.014,24.45-25.428c10.758-12.715,18.414-21.349,22.983-25.918l0.978-2.934c-0.657,0-2.934,0.657-6.846,1.956
		c-2.613,0.978-4.729,1.307-6.357,0.978c-7.823,2.613-19.07,7.336-33.74,14.182l-2.445-0.979l-0.979,2.445
		c-8.152,5.547-15.977,9.948-23.472,13.203c-3.591,2.613-8.481,5.059-14.67,7.335c-7.175,2.935-14.67,8.313-22.494,16.137
		c-0.978,0-2.04,0.733-3.179,2.2c-1.146,1.468-2.2,2.369-3.178,2.689c-0.979,1.957-2.613,4.57-4.891,7.824l-0.978,2.935
		c-0.979,4.24-0.657,6.846,0.978,7.823c-1.307,0.329-2.613,0.49-3.912,0.49c-3.591,0-8.48-1.957-14.67-5.869
		c-3.912-8.802-5.868-17.764-5.868-26.895c-5.547-5.539-6.524-16.626-2.934-33.252c5.868-27.056,16.786-53.301,32.763-78.729
		c0.649-1.627,2.277-3.912,4.891-6.846c-0.657-2.605,0.81-5.05,4.4-7.335c1.299-1.299,2.935-3.912,4.891-7.824
		c3.583-4.562,8.962-11.247,16.137-20.049v-0.978v-0.489c0.649-2.605,7.167-9.612,19.56-21.027
		c12.386-11.408,20.699-18.253,24.939-20.538h0.978c2.277,0,4.233,0.978,5.868,2.934c1.628,1.956,3.255,3.912,4.891,5.868
		l1.956,6.357c2.276-0.649,5.699-1.956,10.269-3.912l-1.467-0.978c3.255-1.627,5.7-2.445,7.335-2.445v0.978v0.489
		c0.649,0,1.299,0,1.956,0c-0.657,0,2.444,1.635,9.291,4.89c5.868,8.481,12.714,18.911,20.538,31.296
		c-0.329,2.613,0.733,6.112,3.178,10.513c2.445,4.401,3.34,8.237,2.69,11.492l-1.956,0.489L860,71.879h-4.401l-1.467,1.467
		c-5.219-0.978-8.642-4.401-10.269-10.269c-1.636-5.868-4.401-9.78-8.313-11.736c-6.196,0.978-10.758,3.752-13.692,8.313
		c-8.802,6.525-16.954,14.181-24.449,22.983c-7.824,4.569-15.977,13.203-24.45,25.917c-11.087,16.305-18.093,25.917-21.027,28.851
		c-0.978,4.569-2.284,7.014-3.912,7.335c0.321,0.657,0.811,0.978,1.468,0.978c0.32,0,1.054-0.565,2.2-1.711
		c1.139-1.138,2.36-1.543,3.667-1.222l3.912-0.978l1.467-0.978l-0.978-0.978h0.489l0.488,0.978c1.628-0.649,4.073-1.467,7.335-2.445
		c0-0.649,0.565-1.299,1.712-1.956c1.139-0.649,2.032-1.299,2.689-1.956c0.321,0.657,0.649,0.978,0.979,0.978
		c2.276-1.627,3.743-2.445,4.4-2.445l2.445,1.956l-0.489-1.467l6.846-1.956l0.979,0.489l0.489-2.445l1.956-0.978l2.444-1.467
		l-0.488,1.467c1.627,0,3.667-0.978,6.112-2.934c2.444-1.956,4.966-2.934,7.579-2.934c0,0.329,0.16,0.489,0.489,0.489
		c1.956,0,2.934-0.161,2.934-0.489c2.277-0.649,5.868-2.445,10.758-5.379c0.65,0.657,2.117,0.978,4.401,0.978
		c5.54-2.605,10.27-4.233,14.181-4.89c0.65-1.627,1.3-2.445,1.956-2.445c0.321,0,0.734,0.245,1.223,0.733
		c0.489,0.489,0.895,0.733,1.223,0.733c0.649,0,1.467-0.649,2.445-1.956h0.978c0.979,0,2.201-0.565,3.668-1.711
		c1.467-1.138,2.521-1.711,3.179-1.711c0.649,0,1.299,0.329,1.955,0.978c5.211-0.978,12.058-3.094,20.538-6.357
		c1.628-0.978,3.095-1.467,4.401-1.467l1.956,0.489c1.299,2.934,3.255,7.175,5.868,12.714l-0.979,1.956
		c-0.328,1.635,0.321,3.591,1.956,5.868c1.628,2.285,2.277,4.241,1.956,5.868c2.277,0.657,4.072,2.284,5.379,4.89
		c-0.657,2.285-1.467,6.036-2.444,11.247c-9.78,11.086-21.355,24.129-34.72,39.12c-2.934,2.935-6.524,6.686-10.758,11.248v-0.49
		c-10.758,9.459-18.91,18.911-24.45,28.363l-0.978-0.49c-2.284,3.264-5.059,5.379-8.313,6.357
		c-2.284,2.613-5.379,6.525-9.291,11.736c-1.306,0-2.773,0.979-4.4,2.934c-1.636,1.956-2.935,3.103-3.912,3.424
		c-3.912,3.59-7.664,7.174-11.247,10.758c-4.89,4.24-9.291,7.014-13.203,8.313c-3.591,2.613-8.152,7.014-13.692,13.203
		c2.935-0.979,6.847-3.255,11.736-6.846h1.467c5.868-5.211,14.502-12.057,25.917-20.539c1.628-2.276,3.584-4.072,5.868-5.379
		c2.277-1.299,5.211-3.743,8.802-7.334c1.3-0.65,2.605-1.628,3.912-2.935c1.956,0,3.5-0.894,4.646-2.689
		c1.139-1.788,2.445-3.011,3.912-3.667c1.467-0.65,3.5-2.117,6.112-4.401c0-1.299,0.979-2.2,2.935-2.689s2.766-1.383,2.445-2.689
		c0.649-0.321,3.911-3.255,9.779-8.802c1.956-0.321,3.5-1.467,4.646-3.424c1.139-1.955,2.851-3.254,5.135-3.912
		c1.299-1.299,3.255-3.254,5.868-5.867c1.299-0.65,4.89-4.072,10.758-10.27c0.321-1.627,3.255-5.211,8.802-10.758
		c5.54-5.539,9.291-11.896,11.247-19.07l1.467-3.912l3.912-0.489C899.44,154.688,899.77,157.783,899.12,161.366z M712.811,139.361
		v-1.956c-1.956,3.263-3.751,5.547-5.379,6.846c0.321,0,0.649,0.489,0.979,1.467c0,0.329-0.329,0.978-0.979,1.956l-0.978,0.489
		c-0.657,0.657-1.146,1.146-1.467,1.467c0,0.329,0.488,0.489,1.467,0.489c-1.636,1.956-2.613,3.591-2.935,4.89
		c0,0.978,0,2.613,0,4.89c-0.328,1.307-1.146,2.773-2.444,4.401l1.467,0.978L712.811,139.361z M721.124,119.801
		c-0.657,0.329-1.307,1.796-1.956,4.401c-0.329,0.657-1.307,1.146-2.935,1.467c-1.635,3.263-2.612,6.036-2.934,8.313
		c-0.328,0.657-0.168,1.467,0.489,2.445c1.627-1.627,2.934-5.21,3.912-10.758h0.978L721.124,119.801z M728.459,106.109
		c-0.657,1.307-1.796,3.102-3.423,5.379C726.014,110.189,727.152,108.394,728.459,106.109z M743.618,80.681
		c-2.935,4.24-5.708,7.174-8.313,8.802c0.321,0.657,0.489,1.146,0.489,1.467c-0.329,0.657-0.901,1.551-1.712,2.689
		c-0.817,1.146-1.223,2.04-1.223,2.689c0,0.657,0,1.146,0,1.467C736.771,92.585,740.355,86.877,743.618,80.681z"/>
	<path d="M1105.474,121.268v1.467c0.321,2.613-0.488,6.525-2.444,11.736c0.32,1.635-0.168,3.591-1.468,5.868h0.979
		c-1.635,2.934-3.591,7.664-5.868,14.181c-0.978,0.979-0.978,1.636,0,1.957v0.978c-0.328,0.978-1.146,2.368-2.445,4.156
		c-1.306,1.796-2.124,3.996-2.444,6.602c-1.307,0.657-2.445,1.636-3.423,2.935c-0.329,0.656,0.16,1.307,1.467,1.955h-0.979v-0.488
		c-0.657,1.955-2.284,4.568-4.89,7.824c-0.328,1.307-1.146,2.613-2.445,3.912v1.467c-1.956,1.635-4.24,4.729-6.846,9.291
		c-0.978,0.328-1.635,1.635-1.956,3.912c-4.24,3.912-8.152,10.926-11.736,21.026v0.489v-1.956
		c-3.262,4.569-8.642,11.247-16.137,20.049v1.468l-13.203,12.225v0.978c-3.912,2.284-9.291,6.196-16.137,11.736
		c-1.956,1.306-5.135,2.934-9.535,4.89c-4.401,1.956-10.843,5.707-19.315,11.247l-0.489-0.489
		c-6.847,2.613-12.714,3.912-17.604,3.912c-1.956,1.307-5.379,2.285-10.269,2.934v0.49c-8.481,0-14.67-0.979-18.582-2.935
		c-0.979,0.657-1.956,0.978-2.935,0.978c-1.306,0-2.857-0.32-4.646-0.978c-1.795-0.649-3.102-1.223-3.911-1.712
		c-0.818-0.488-2.613-0.81-5.38-0.978c-2.773-0.161-4.156-1.383-4.156-3.667c-2.613-1.299-5.219-2.767-7.824-4.401
		c-2.612-1.628-4.08-3.583-4.4-5.868c-8.152-6.518-12.226-19.881-12.226-40.098c0-15.969,2.445-35.04,7.335-57.213
		c1.628-3.912,3.744-9.941,6.357-18.094c0.321-0.649,0.81-1.627,1.467-2.934v-0.978c0.321-0.649,1.299-1.956,2.935-3.912
		c1.627-1.956,1.956-3.583,0.978-4.89c3.255-6.189,9.451-14.991,18.582-26.406c0.979-3.583,3.423-6.028,7.335-7.335h-1.467
		c1.299,0,2.521-0.978,3.667-2.934c1.139-1.956,2.521-3.255,4.157-3.912l0.488,0.978l1.956-0.978l-0.978-1.467
		c0.649,0.329,1.299,0.489,1.956,0.489c0.649,0,0.81-0.649,0.489-1.956l5.867-3.423h-1.467c0.649-0.978,2.277-1.467,4.891-1.467
		c1.299,0,2.276-0.65,2.934-1.956l0.489,1.467c2.605-1.627,6.028-4.401,10.269-8.313l3.423,0.489l-0.488-1.956l0.978,1.956
		c0.321-1.628,0.979-2.934,1.956-3.912c0.649,0,1.628-0.321,2.934-0.978l-0.488,0.489l0.488,0.978
		c2.277-1.627,3.255-2.766,2.935-3.423c1.299-1.627,3.912-3.423,7.824-5.379l1.956,0.489c1.956,0,3.583-0.649,4.89-1.956v-0.489
		l-2.934,0.489c0.32-0.978,1.627-1.467,3.911-1.467c0.979,0,1.956-0.489,2.935-1.467l0.978,1.467l1.467-0.978l-0.488-0.489
		l1.956-0.489v0.489h0.978l0.489-1.467c1.299,0.329,2.276,0.657,2.934,0.978l1.956-1.956l0.489,1.467l0.978-0.489v-0.978
		c1.956,0,4.891-0.489,8.803-1.467c0.649,0.657,1.467,0.978,2.444,0.978c0.649,0,1.628-0.245,2.935-0.734
		c1.299-0.489,2.276-0.733,2.934-0.733c0.979,0,1.956,0.329,2.935,0.978c2.605,0,7.167,0.978,13.691,2.934v-1.467h1.467l0.979-1.467
		c0,0.657,1.467,0.978,4.401,0.978c0.649,0,0.978,0.657,0.978,1.956c0.321,0,0.81,0,1.467,0c3.584,0,5.211,0,4.891,0
		c3.255,1.307,7.823,3.591,13.691,6.846l-0.489,0.489c1.3,0,2.767,0.168,4.401,0.489l-0.489,1.467c2.605,0,4.646,1.223,6.113,3.667
		c1.467,2.445,3.178,3.835,5.134,4.157c2.935,4.24,6.678,11.086,11.247,20.538c-0.657,0.657-0.978,1.146-0.978,1.467
		c0.649,0.329,0.978,1.307,0.978,2.934c0,1.635,0.321,3.591,0.979,5.868c-0.329,0.329-0.489,0.657-0.489,0.978
		C1103.189,116.378,1104.167,118.334,1105.474,121.268z M966.109,269.924c-1.307,0.328-2.613,0.489-3.912,0.489
		c-0.979,0-2.285,0-3.912,0c-1.636-0.321-2.773-0.489-3.423-0.489c-3.592-0.649-8.642-2.116-15.159-4.4
		c-15.327-9.123-25.597-19.232-30.808-30.318c0,26.406,10.43,39.609,31.297,39.609c4.89,0,10.59-0.65,17.114-1.957h5.868
		C964.153,272.857,965.131,271.88,966.109,269.924z M1053.64,117.845c-1.307-0.65-2.773-1.788-4.4-3.423
		c-6.525-0.649-11.904-5.211-16.138-13.692h-7.335l-1.467,1.956c-0.328-0.978-0.817-1.467-1.467-1.467
		c-0.657,0.328-0.817,0.657-0.489,0.978c-2.284,0-8.97,3.263-20.049,9.78c-2.284,2.285-4.401,3.912-6.356,4.89
		c-1.956,2.613-7.015,7.014-15.159,13.203c-6.197,4.89-10.759,10.598-13.692,17.115h0.979v0.489l-2.445,2.934l1.956,0.978
		c-2.285,1.956-3.103,3.423-2.445,4.4c-0.978,0.979-1.467,1.797-1.467,2.445c0.321,0.329,0.489,0.979,0.489,1.957
		c0,0.328-0.489,0.978-1.468,1.955v0.489c-6.196,10.108-13.691,22.494-22.493,37.164c2.934,1.307,6.356,1.956,10.269,1.956
		c14.991,0,32.924-7.496,53.79-22.494c3.912-3.584,9.94-7.984,18.093-13.203l-0.488-0.979c5.867-3.911,12.546-11.078,20.049-21.515
		C1050.378,132.026,1054.289,123.392,1053.64,117.845z M1020.877,236.184c-8.481,2.934-25.596,9.459-51.345,19.56v0.489
		c4.562,0,7.335-0.811,8.313-2.445c0.649,0.328,1.467,0.488,2.445,0.488c0.321,0,1.139,0,2.445,0
		c0.978-0.32,1.787-0.488,2.444-0.488l0.489-0.979l9.78-2.445l0.978-1.467c1.956-0.32,4.722-1.223,8.313-2.689
		C1008.323,244.74,1013.702,241.401,1020.877,236.184z M1095.694,116.867c0-18.253-11.415-28.683-34.23-31.296
		c2.277,3.912,4.722,10.269,7.335,19.071c0.321,3.591,2.361,7.824,6.112,12.714c3.744,4.89,5.295,10.269,4.646,16.137
		c-0.657,9.78-0.657,16.794,0,21.026l-1.467,2.935c0.649,0,1.299,0.329,1.956,0.978c-0.657,0.979-1.467,2.445-2.445,4.401
		c0,0.657,0.321,0.978,0.979,0.978l0.978-0.978l0.979,1.467C1090.636,144.419,1095.694,128.603,1095.694,116.867z"/>
	<path d="M1329.435,39.605c-0.978,4.241-5.379,14.999-13.203,32.274c-8.152,18.582-13.202,30.975-15.158,37.164l-1.468,0.978
		c-7.823,25.107-12.064,38.959-12.714,41.565c-5.218,15.648-10.758,29.18-16.626,40.587c-2.284,3.912-5.058,9.78-8.313,17.604
		c-1.636,0.978-2.689,2.773-3.179,5.379c-0.489,2.613-1.223,4.4-2.2,5.379l0.978,3.912l-0.489-0.489
		c-0.978,0.978-1.467,1.796-1.467,2.444c1.299,0.979,1.628,3.752,0.979,8.313l0.978,0.978c-1.307,2.935-3.263,7.336-5.868,13.203
		h-0.978l0.489,0.979l1.467,0.488c-1.956,8.803-2.773,13.532-2.445,14.182l-0.978,2.445v-0.489l0.488,0.489
		c-0.978,0.656-1.956,2.934-2.934,6.846c-1.307,7.503-1.956,11.415-1.956,11.736c0,2.934,2.116,5.379,6.357,7.335
		c-2.285,4.24-6.525,6.686-12.715,7.335c-1.306,1.956-2.773,4.24-4.4,6.846c-4.569,2.934-8.152,4.4-10.758,4.4
		c-3.263,0-5.219-3.743-5.868-11.246c0-5.539-0.168-10.918-0.489-16.137c-1.956,2.284-4.401,4.568-7.335,6.846l-1.467-0.979
		c1.299-7.824,3.423-19.721,6.356-35.697c-2.284-4.232-7.503-15.808-15.647-34.719c-8.152-18.902-12.226-29.172-12.226-30.807
		c-6.196-15.969-11.415-30.318-15.647-43.032c-3.912,10.108-6.357,21.517-7.335,34.23c-0.657,0.657-1.146,2.2-1.467,4.646
		c-0.329,2.445-0.979,6.28-1.956,11.491l-0.489-0.489c0,3.912-1.635,9.78-4.89,17.604h0.978c-0.657,1.306-1.635,3.591-2.934,6.846
		c0,0.978,0,2.529,0,4.646c0,2.124,0,3.836,0,5.135c-0.329,0.979-1.146,2.445-2.445,4.4c-1.307,1.957-1.956,3.592-1.956,4.891
		c0,1.307,0,3.102,0,5.379c-0.328,1.635-1.307,3.102-2.934,4.4c0.32,0.658,0.32,1.307,0,1.957c-0.329,0.978-0.979,2.444-1.956,4.4
		l0.488,1.956l-0.488,1.956l-1.468,0.488l0.979,3.424l-1.956,3.912c0.649,0.656,0.489,2.445-0.489,5.379
		c-1.307,4.568-3.423,10.598-6.356,18.093c0.649,0.657,0.978,1.307,0.978,1.956c0,0.328-0.573,0.979-1.711,1.956
		c-1.146,0.978-1.391,1.956-0.734,2.935c-1.635,0.656-2.857,2.199-3.667,4.645c-0.817,2.445-2.04,3.996-3.668,4.646
		c0.321,1.307-0.168,1.955-1.467,1.955c-0.657,0-1.146-0.16-1.467-0.488c-2.934-25.428-1.307-53.133,4.89-83.131
		c0.321-3.912,0.979-9.779,1.956-17.604c2.935-22.814,7.007-61.125,12.226-114.915v0.489c0,0.657-0.657,0.817-1.956,0.489
		l0.978,1.956c-2.613,12.064-5.868,30.486-9.779,55.257c-2.285,15.976-5.708,40.098-10.27,72.373
		c-1.635,15.647-4.08,39.287-7.335,70.904c0.321,6.846,0.321,17.115,0,30.807c4.233,6.518,6.188,10.43,5.868,11.736
		c-0.657,3.256-3.103,4.891-7.335,4.891c-0.329,0-0.979,0.648-1.956,1.955c-0.979,1.299-2.124,1.957-3.423,1.957
		c-1.636,0-3.103-0.168-4.401-0.489c-3.263-3.591-4.89-13.692-4.89-30.318c0-26.727,3.912-67.313,11.735-121.761
		c6.189-42.375,12.058-75.956,17.604-100.734c2.276-11.408,3.912-22.655,4.89-33.741l3.423-0.489
		c-2.934-1.956-4.24-4.073-3.911-6.357c0.32-0.978,1.222-1.788,2.689-2.445c1.467-0.649,3.01-0.978,4.646-0.978
		c1.299,0,3.583,0.168,6.846,0.489c2.934,0,5.211,0,6.846,0c0.649,0.978,1.467,1.467,2.445,1.467c0.32,0,1.055-0.161,2.2-0.489
		c1.139-0.321,2.032-0.489,2.689-0.489c0.649,0,1.467,0.329,2.445,0.978l1.467-1.467c-0.328,1.635,0.565,2.529,2.689,2.689
		c2.116,0.168,3.5,1.062,4.156,2.689c6.847,2.284,11.408,8.481,13.692,18.582c2.934,7.174,7.007,18.093,12.225,32.763
		c5.54,20.217,11.896,36.843,19.071,49.878c0,4.241,1.544,10.024,4.646,17.36c3.095,7.334,4.806,12.958,5.135,16.869
		c1.956,1.957,3.095,5.059,3.423,9.291l2.934,4.891c1.956-4.562,3.424-10.918,4.401-19.07c0.978-10.759,1.628-17.275,1.956-19.561
		c1.627-6.189,3.499-15.564,5.623-28.118c2.117-12.546,3.828-21.921,5.135-28.117c1.956-10.43,6.189-26.162,12.714-47.188
		c6.518-21.027,10.919-36.751,13.203-47.189c0-0.649-0.084-1.788-0.244-3.423c-0.168-1.627-0.084-2.766,0.244-3.423
		c0-0.978,0.489-1.788,1.467-2.445c4.233,0,9.612,1.635,16.138,4.89c6.518,3.263,11.735,5.058,15.647,5.379
		c3.255,1.307,7.656,3.591,13.203,6.846c0.649,0.978,1.956,2.285,3.912,3.912C1326.822,30.803,1328.457,35.372,1329.435,39.605z"/>
</g>
<g class="st0">
	<path class="st1" d="M250.5,211.5c-1.672,2.672-3.672,6.5-6,11.5l-0.5,1.5c0,1-1.172,2.172-3.5,3.5l-0.5,0.5
		c0,1.336-1.336,3.172-4,5.5l1,1.5l-5,3v1c-1.336,1.336-3.836,2.836-7.5,4.5l1.5,0.5c-3.672,2-6.836,3-9.5,3v1.5
		c-4.672,2.336-11.836,5.336-21.5,9c-1,1.336-6,3.5-15,6.5c-10.672,3.336-16.336,5.172-17,5.5c-0.336,1.336-2.672,2.172-7,2.5
		c-4.672,2.672-10.172,4.836-16.5,6.5c-6.336,1.672-17.5,6.336-33.5,14c-2.336,1.336-7.836,3.172-16.5,5.5
		c-4.672,1.336-13.336,5.336-26,12c-16.336,8.672-26.672,13-31,13c-4.672,0-9.172-2.328-13.5-7c-6.664-7-10.164-11-10.5-12
		c-0.328-1-1.164-2-2.5-3c-1.328-1-2-2.664-2-5c0-4.664,2.836-15.5,8.5-32.5l7-32.5C23.5,213.5,38,179,63,128
		c27-55,45.164-82.5,54.5-82.5c3.664,0,5.164,1.672,4.5,5c-0.336,0.336-0.5,0.836-0.5,1.5c-0.336,1-0.086,2.672,0.75,5
		c0.828,2.336,1.078,4.172,0.75,5.5c-0.672,3.336-2.836,6.5-6.5,9.5h2c-1.672,2-4.336,4.836-8,8.5L111,81
		c6.328-5.328,12.828-12.164,19.5-20.5c-0.336-1-0.5-2-0.5-3c0.664-2.664,3.828-4,9.5-4c24,14,42.828,28.336,56.5,43l2,3.5
		c-1.336,0.672-2.5,1-3.5,1l1.5,3.5l-1.5-1l-0.5,2l-2.5-1c-0.336,2.672-1.336,4-3,4c-1.336,0-5.086-2.828-11.25-8.5
		c-6.172-5.664-11.086-8.5-14.75-8.5c-3.672,0-11.836,7.672-24.5,23c-8,10-16,20-24,30c-3.336,5.336-8.836,12.836-16.5,22.5
		c0,0.336,0,0.836,0,1.5c-5.672,7.336-12,16.836-19,28.5c-0.336,2.336-2,5.172-5,8.5L71,207l-2,5l-3.5,3.5L67,217l-1,0.5l-6.5,15
		c-0.672-1-1.172-0.828-1.5,0.5c0.328,0.672,0.328,1.836,0,3.5l0.5,3c26-6.328,64.828-16.664,116.5-31v1.5
		c-1.672,0.672-3.836,2-6.5,4h-1c-0.672,1.672-2.172,3-4.5,4l-0.5-0.5l-8,4.5l0.5,1c-2.672,0.672-6.172,2.172-10.5,4.5
		c-8.336,3.672-21.172,8-38.5,13l-1.5,1.5c-12,3.672-30,9-54,16c-3,2.672-4.836,6.336-5.5,11l1,0.5c21.328-9.328,55-21.664,101-37
		c51.664-17,84-25.5,97-25.5C249,207,251.164,208.5,250.5,211.5z"/>
	<path class="st1" d="M389.497,231.5c-1.336,1.336-1.836,3.672-1.5,7l-1,0.5c0.328,0.336,0.328,0.836,0,1.5c0,1-1.336,2.672-4,5
		c-2.672,2.336-4.5,3.5-5.5,3.5c0,1.672-0.172,4.172-0.5,7.5l0.5,1l1.5,1c-2.672,1.672-5,4.172-7,7.5
		c-2.672,1.336-4.836,2.5-6.5,3.5c-3.336,2.336-8.5,5.172-15.5,8.5c-1,1.672-2.75,2.75-5.25,3.25s-4.086,1.422-4.75,2.75
		c-4.672,2.672-11.836,5.5-21.5,8.5c-10.336,4.672-20.836,9.172-31.5,13.5c-12.336,5.672-22.672,11.336-31,17l-0.5,1l-1.5-1
		c-1.672,1.328-4,2-7,2c-3.336,0-7.086-1.086-11.25-3.25c-4.172-2.164-6.078-4.75-5.75-7.75c3.328-38.328,13.828-99,31.5-182
		c2-8.664,3.828-22,5.5-40c1.664-18,3.328-31.164,5-39.5c1.328-6.664,4.828-10,10.5-10c2.328,0,5.25,1.586,8.75,4.75
		c3.5,3.172,6.078,5.086,7.75,5.75c1,2.672,2,3.5,3,2.5l-1.5,2l3,1.5l0.5-1l1-1.5c-0.672,5-0.172,8,1.5,9
		c-1.336,4.672-3,11.836-5,21.5h-0.5c-3,10.672-5.672,21.5-8,32.5c0.328,0.336-0.172,2.172-1.5,5.5l1,2l-0.5,1.5v-2l-1.5,2.5
		c-1.336,9-3.672,22.5-7,40.5c-0.672,0.336-1.172,1-1.5,2c0.328,0.336,0.664,0.836,1,1.5c-4.336,12.672-7.172,24.672-8.5,36l-1,0.5
		c0,1.336,0,3.172,0,5.5c-2,2.672-2.836,5.672-2.5,9c-0.672,2-1.336,4.672-2,8c-2.336,0-3.586,0.836-3.75,2.5
		c-0.172,1.672-0.422,3.836-0.75,6.5h1.5l1.5-4l0.5,3.5c0.328,0,5.664-1.664,16-5c37-12,66.5-18,88.5-18l-2,1.5
		c0.328,2.672-1.836,4-6.5,4c-1,0-1,0.672,0,2c-0.672,1.336-2.25,2.336-4.75,3c-2.5,0.672-3.922,1.836-4.25,3.5
		c-2,0.672-5.172,1.672-9.5,3l-2,1l-1,1.5l1,0.5c10-2,15.5-3,16.5-3l1-1.5l0.5,1c1.328-0.328,3.164-1.164,5.5-2.5
		c0.664,0.336,1.328,0.5,2,0.5c0.328,0,0.914-0.25,1.75-0.75c0.828-0.5,1.414-0.75,1.75-0.75c1,0,1.664,0.336,2,1
		c1.328,0,3.5-0.828,6.5-2.5c0.328,0.336,2.164,0.172,5.5-0.5l1.5,1.5l-1.5,2C388.497,233,389.497,232.836,389.497,231.5z
		 M289.997,256.5c-2.336,0-5.586,0.922-9.75,2.75c-4.172,1.836-7.086,2.922-8.75,3.25c-3.672,0-7.672,1.336-12,4
		c0,1,0.164,2.336,0.5,4c0.664-1,7.664-4.664,21-11C278.661,259.5,281.661,258.5,289.997,256.5z"/>
	<path class="st1" d="M612.992,129v1.5c0.328,2.672-0.5,6.672-2.5,12c0.328,1.672-0.172,3.672-1.5,6h1c-1.672,3-3.672,7.836-6,14.5
		c-1,1-1,1.672,0,2v1c-0.336,1-1.172,2.422-2.5,4.25c-1.336,1.836-2.172,4.086-2.5,6.75c-1.336,0.672-2.5,1.672-3.5,3
		c-0.336,0.672,0.164,1.336,1.5,2h-1v-0.5c-0.672,2-2.336,4.672-5,8c-0.336,1.336-1.172,2.672-2.5,4v1.5c-2,1.672-4.336,4.836-7,9.5
		c-1,0.336-1.672,1.672-2,4c-4.336,4-8.336,11.172-12,21.5v0.5v-2c-3.336,4.672-8.836,11.5-16.5,20.5v1.5l-13.5,12.5v1
		c-4,2.336-9.5,6.336-16.5,12c-2,1.336-5.25,3-9.75,5s-11.086,5.836-19.75,11.5l-0.5-0.5c-7,2.672-13,4-18,4
		c-2,1.336-5.5,2.336-10.5,3v0.5c-8.672,0-15-1-19-3c-1,0.672-2,1-3,1c-1.336,0-2.922-0.328-4.75-1c-1.836-0.664-3.172-1.25-4-1.75
		c-0.836-0.5-2.672-0.828-5.5-1c-2.836-0.164-4.25-1.414-4.25-3.75c-2.672-1.328-5.336-2.828-8-4.5c-2.672-1.664-4.172-3.664-4.5-6
		c-8.336-6.664-12.5-20.328-12.5-41c0-16.328,2.5-35.828,7.5-58.5c1.664-4,3.828-10.164,6.5-18.5c0.328-0.664,0.828-1.664,1.5-3v-1
		c0.328-0.664,1.328-2,3-4c1.664-2,2-3.664,1-5c3.328-6.328,9.664-15.328,19-27c1-3.664,3.5-6.164,7.5-7.5h-1.5
		c1.328,0,2.578-1,3.75-3c1.164-2,2.578-3.328,4.25-4l0.5,1l2-1l-1-1.5c0.664,0.336,1.328,0.5,2,0.5c0.664,0,0.828-0.664,0.5-2
		l6-3.5h-1.5c0.664-1,2.328-1.5,5-1.5c1.328,0,2.328-0.664,3-2l0.5,1.5c2.664-1.664,6.164-4.5,10.5-8.5l3.5,0.5l-0.5-2l1,2
		c0.328-1.664,1-3,2-4c0.664,0,1.664-0.328,3-1l-0.5,0.5l0.5,1c2.328-1.664,3.328-2.828,3-3.5c1.328-1.664,4-3.5,8-5.5l2,0.5
		c2,0,3.664-0.664,5-2V76l-3,0.5c0.328-1,1.664-1.5,4-1.5c1,0,2-0.5,3-1.5l1,1.5l1.5-1l-0.5-0.5l2-0.5v0.5h1l0.5-1.5
		c1.328,0.336,2.328,0.672,3,1l2-2l0.5,1.5l1-0.5v-1c2,0,5-0.5,9-1.5c0.664,0.672,1.5,1,2.5,1c0.664,0,1.664-0.25,3-0.75
		c1.328-0.5,2.328-0.75,3-0.75c1,0,2,0.336,3,1c2.664,0,7.328,1,14,3v-1.5h1.5l1-1.5c0,0.672,1.5,1,4.5,1c0.664,0,1,0.672,1,2
		c0.328,0,0.828,0,1.5,0c3.664,0,5.328,0,5,0c3.328,1.336,8,3.672,14,7l-0.5,0.5c1.328,0,2.828,0.172,4.5,0.5l-0.5,1.5
		c2.664,0,4.75,1.25,6.25,3.75s3.25,3.922,5.25,4.25c3,4.336,6.828,11.336,11.5,21c-0.672,0.672-1,1.172-1,1.5
		c0.664,0.336,1,1.336,1,3c0,1.672,0.328,3.672,1,6c-0.336,0.336-0.5,0.672-0.5,1C610.656,124,611.656,126,612.992,129z
		 M470.492,281c-1.336,0.336-2.672,0.5-4,0.5c-1,0-2.336,0-4,0c-1.672-0.328-2.836-0.5-3.5-0.5c-3.672-0.664-8.836-2.164-15.5-4.5
		c-15.672-9.328-26.172-19.664-31.5-31c0,27,10.664,40.5,32,40.5c5,0,10.828-0.664,17.5-2h6C468.492,284,469.492,283,470.492,281z
		 M559.992,125.5c-1.336-0.664-2.836-1.828-4.5-3.5c-6.672-0.664-12.172-5.328-16.5-14h-7.5l-1.5,2c-0.336-1-0.836-1.5-1.5-1.5
		c-0.672,0.336-0.836,0.672-0.5,1c-2.336,0-9.172,3.336-20.5,10c-2.336,2.336-4.5,4-6.5,5c-2,2.672-7.172,7.172-15.5,13.5
		c-6.336,5-11,10.836-14,17.5h1v0.5l-2.5,3l2,1c-2.336,2-3.172,3.5-2.5,4.5c-1,1-1.5,1.836-1.5,2.5c0.328,0.336,0.5,1,0.5,2
		c0,0.336-0.5,1-1.5,2v0.5c-6.336,10.336-14,23-23,38c3,1.336,6.5,2,10.5,2c15.328,0,33.664-7.664,55-23
		c4-3.664,10.164-8.164,18.5-13.5l-0.5-1c6-4,12.828-11.328,20.5-22C556.656,140,560.656,131.172,559.992,125.5z M526.492,246.5
		c-8.672,3-26.172,9.672-52.5,20v0.5c4.664,0,7.5-0.828,8.5-2.5c0.664,0.336,1.5,0.5,2.5,0.5c0.328,0,1.164,0,2.5,0
		c1-0.328,1.828-0.5,2.5-0.5l0.5-1l10-2.5l1-1.5c2-0.328,4.828-1.25,8.5-2.75C513.656,255.25,519.156,251.836,526.492,246.5z
		 M602.992,124.5c0-18.664-11.672-29.328-35-32c2.328,4,4.828,10.5,7.5,19.5c0.328,3.672,2.414,8,6.25,13
		c3.828,5,5.414,10.5,4.75,16.5c-0.672,10-0.672,17.172,0,21.5l-1.5,3c0.664,0,1.328,0.336,2,1c-0.672,1-1.5,2.5-2.5,4.5
		c0,0.672,0.328,1,1,1l1-1l1,1.5C597.82,152.672,602.992,136.5,602.992,124.5z"/>
	<path class="st1" d="M786.99,8.5V9h-1c-0.336,0-0.836,1.336-1.5,4c0,1-0.5,1.5-1.5,1.5l1,0.5c-1,0.672-2,1.336-3,2
		c-1.336,0.672-2.336,0.5-3-0.5l-0.5,0.5l2.5,2l-3.5,0.5l-0.5,3c-0.672,0.672-0.672,1.5,0,2.5c-1.672,1-3.836,2.5-6.5,4.5
		c0.328,0.336,0.664,0.672,1,1c0.664,0,1.414-0.25,2.25-0.75c0.828-0.5,1.414-0.75,1.75-0.75c0.664,0.336,1.164,0.672,1.5,1
		l-1.5,0.5l0.5,0.5c-2.672,0.672-3.5,1.836-2.5,3.5l-0.5,0.5h-1c-0.672,0-1.836,0.172-3.5,0.5l1,1h1.5c-1,1-2.672,1.5-5,1.5l-8.5,6
		l-0.5,1.5c-2.336,1-5.672,2.172-10,3.5l-3,1.5c-5,1.672-12.336,4.672-22,9c-0.336,2-0.336,3.672,0,5h2
		c-2,4.336-4.336,11.172-7,20.5l1.5-8c-1.672,1.672-3.5,6.172-5.5,13.5c-2.336,8.336-4,13.5-5,15.5c1,6-6.172,25.172-21.5,57.5
		c-1,1-2.672,2.172-5,3.5l-1-4.5c-2.336,9-6.5,20.336-12.5,34l2,1l-3,2.5l1,1l-1,1l0.5,1c-5.336,4.672-8.172,10.672-8.5,18h-0.5
		l-0.5,2.5c-0.672,5-2.5,9.672-5.5,14c-3.672,10.336-8.172,26-13.5,47c-1.336,0.672-1.5,2-0.5,4c-1.336,4.672-3.672,11.336-7,20
		c0.328,2-0.672,5.172-3,9.5v6l-2,1c0.328,0.664,0.5,1.328,0.5,2c-0.336,1-1.086,2.25-2.25,3.75c-1.172,1.5-1.586,3.078-1.25,4.75
		l0.5-0.5c0-0.672-0.836-1.5-2.5-2.5c-0.336-1-0.172-2.5,0.5-4.5l0.5-1c0.328-6.664,1.5-15,3.5-25c0.664-3,1.25-7.25,1.75-12.75
		s1.078-9.75,1.75-12.75c5.328-25.328,10.164-57.328,14.5-96c3.328-32.328,6.828-64.664,10.5-97l-1-1c-14,7-26,10.5-36,10.5
		c-4,0-7.336-2.164-10-6.5c-2.664-4.328-5-8.5-7-12.5c-0.328-9.664-0.5-15.164-0.5-16.5c1-3.328,2.672-6.164,5-8.5
		c8.664-2.664,16.5-4.5,23.5-5.5v-1c6-1.664,14.328-3.664,25-6c3.664-2,8.664-3.828,15-5.5c8-2,13.164-3.164,15.5-3.5
		c2.328-0.328,6.328-1.664,12-4c5.664-2.328,10.164-3.328,13.5-3c3.328-1.328,8.328-3.164,15-5.5h5c1.664,0.336,3.328,0,5-1v-1
		c0.328,0.336,0.828,0.5,1.5,0.5c1,0,2.414-0.578,4.25-1.75c1.828-1.164,3.578-1.664,5.25-1.5c1.664,0.172,4.164-0.578,7.5-2.25l1,1
		l2-1.5l1,1l3.5-0.5l1.5-1.5l2,2.5l1-2v1h-0.5c-0.336-0.328-0.672-0.828-1-1.5c0.328-0.328,0.828-0.5,1.5-0.5c1,0,2.164,0.5,3.5,1.5
		c0.664-0.664,1.75-1,3.25-1s2.578-0.664,3.25-2c1.328-0.328,2.5-0.5,3.5-0.5c1.328,0,2.664,0.172,4,0.5V6l1.5-2
		c0.664,0.672,1.664,1.336,3,2c-1.672,0-2.5,1.336-2.5,4l2-1L786.99,8.5z M671.99,77.5c-1,0-1.672,0.5-2,1.5
		c-0.336,1.336,0.164,3,1.5,5v-2C672.154,80.336,672.318,78.836,671.99,77.5z M703.49,67h-1.5c-1.672-0.328-2.5,0-2.5,1
		s0.164,2.336,0.5,4l-1.5,2l1.5,1c-1,0.336-2.836,1-5.5,2c0,5.336-1.086,13.172-3.25,23.5c-2.172,10.336-3.25,17.836-3.25,22.5
		C691.654,110.672,696.818,92,703.49,67z"/>
	<path class="st1" d="M927.49,139.5c0.664,2,0.328,6.672-1,14c-1.336,5.336-2.5,10.5-3.5,15.5c-1.336,2.336-3.672,9.172-7,20.5l-2,1
		c-9.336,0.672-19.672,1.5-31,2.5c-3.672,14-7.172,32.672-10.5,56c-4.336,29.672-7.336,48.336-9,56c-3,0-7.336-0.5-13-1.5
		c-3.336-2.328-4.672-4.328-4-6c-1-0.664-1.336-1.328-1-2c0-0.328,0.5-1.328,1.5-3c1-1.664,1.164-3,0.5-4
		c2.664-1.664,4.5-2.5,5.5-2.5h1.5v1.5l1,1c2.328-14,5.328-35.164,9-63.5c-4.336,17-8.836,33.836-13.5,50.5
		c-7,27-11.672,40.5-14,40.5c-1.672,0-3.336-0.5-5-1.5l-0.5-2c-0.672,0.336-1.172,0.5-1.5,0.5c-2.336,0-1.672-8.828,2-26.5
		c5.664-20,13.5-50,23.5-90h-4c-2.672-0.328-6.5-0.078-11.5,0.75c-5,0.836-8.422,1.422-10.25,1.75c-1.836,0.336-3.422,0.5-4.75,0.5
		c-1.672,0-2.836-0.5-3.5-1.5c-1.336,0.672-3.5,1.836-6.5,3.5h-3c-1.336-0.328-3.172-0.328-5.5,0c-3,0.336-5,0.5-6,0.5l-0.5,1.5
		c-1-0.328-1.836-0.5-2.5-0.5c-1.672,0-4.172,0.5-7.5,1.5c-3.336,1-5.672,1.5-7,1.5v-0.5c-2.336,0.336-5.336,1.336-9,3
		c-5.336,1-13.5,2.5-24.5,4.5l-3.5,3.5l-2,10c-3,12.672-6,30.672-9,54c-3,24.672-5.672,42.828-8,54.5
		c-0.672,0.328-1.172,0.5-1.5,0.5c-0.672,0-1.172-0.75-1.5-2.25c-0.336-1.5-0.5-2.422-0.5-2.75c0-3.672-0.172-7.336-0.5-11
		c0-6-0.5-9-1.5-9c-1.672,0-3,1.672-4,5c-3-0.664-5.828-2.164-8.5-4.5c0.336-8.664,2.172-20.164,5.5-34.5
		c3.664-16.664,5.828-28.164,6.5-34.5c5.328-42.328,10.828-77,16.5-104c8.664-42,16.328-70.164,23-84.5c2.328-1,4.5-1.328,6.5-1h2
		c4.664,11,7,25,7,42c-1.672,2-2.672,5.672-3,11l-1.5,11.5c-1.672,6.336-4,15.672-7,28h2.5c2.328,0.336,5.828-0.078,10.5-1.25
		c4.664-1.164,7.828-1.914,9.5-2.25c27.664-3.328,44.664-5,51-5c1.328,0,3.5-0.5,6.5-1.5c6,0,15-0.828,27-2.5l2.5-12
		c5.664-24.664,9.328-51,11-79c0.328-2,2-5,5-9c2.664,0,4.5,1.172,5.5,3.5c1.328,3.672,2.164,5.672,2.5,6l1.5-1l-1-1l4-2.5
		c3.328,3.672,5,12.5,5,26.5c0,14.672-1.172,27.5-3.5,38.5c-2,8-5,20.172-9,36.5l-2.5,3v1h4
		C901.49,143.336,911.818,142.172,927.49,139.5z"/>
	<path class="st1" d="M1138.987,36l-2,3l-0.5,3c-1.336,0.336-2.586,1.25-3.75,2.75c-1.172,1.5-2.586,2.25-4.25,2.25
		c-0.336,0.336-0.5,0.836-0.5,1.5c-0.336,0.336,0,1,1,2c-1,0.672-1.5,1.336-1.5,2c-0.336,1.672,0.328,2.836,2,3.5l-3.5,1.5l-0.5,1.5
		c0,0.672-0.672,1.5-2,2.5l1,0.5c-2.336,1.336-6,2.672-11,4c-3.672,2.336-13.172,5.672-28.5,10c-14,3.672-22,6.836-24,9.5
		c-4.672,0.672-12.5,3.172-23.5,7.5c-1.672,0.672-4.336,1.836-8,3.5c-6.336,2.336-15.836,5.5-28.5,9.5l2-1l-4,1.5l-0.5,1l-1,0.5
		l0.5-1c-4.336,0-7.672,6-10,18l-1.5,9.5c14-2,35.164-4.164,63.5-6.5c6.328,0.672,16.164,0.5,29.5-0.5c-0.672,2-1.672,4.172-3,6.5
		l-2,1.5l0.5,0.5c-1.336,2-5.336,5.5-12,10.5c-2.336,2.672-5.336,5.5-9,8.5l-1,1l0.5,1.5l-4,2l2.5,2c-4.336,2.336-7.836,5-10.5,8
		l0.5,0.5c-10,5-23.172,11.172-39.5,18.5c-16.672,12.336-28.336,17.5-35,15.5c-0.672,2.672-5.336,20.672-14,54l5.5-0.5
		c16.664-7.328,32.5-14.664,47.5-22c9-4.664,17.828-9.328,26.5-14c14.328-7.328,22.328-11,24-11c-0.672,0,0.664,1.5,4,4.5
		c-1,6-0.336,14,2,24c0.328,2.672-0.5,5.75-2.5,9.25s-4,6.75-6,9.75c-2.336,1.672-4.172,3-5.5,4l2-0.5c-2,2-5.336,4.336-10,7
		c-0.336,0.672-1.5,1.5-3.5,2.5c-9.672,5.672-24.336,13.672-44,24c-11.672,5-29.172,12.672-52.5,23c-4.672-1-8-2.664-10-5
		c-0.672,0.336-1.922,1.336-3.75,3c-1.836,1.672-3.086,2.5-3.75,2.5c-0.672,0-3-1-7-3c-2.336,2.336-3.336,5.5-3,9.5
		c0.328-1,3.164-1.836,8.5-2.5c6.664-0.328,10-0.664,10-1c26.328-7,45.164-12.164,56.5-15.5c20.664-7,39.164-14.664,55.5-23l4-0.5
		l-0.5,1c0,1.336-1.672,3.836-5,7.5c-1.672,0.672-4.5,3-8.5,7c-2,2-9,6-21,12c-2,1-4.672,3-8,6c-42.672,16.664-69,25-79,25
		c-7,0-11.172-2-12.5-6c-2-1-2.336-4-1-9c0-1-0.836-1.336-2.5-1l-6.5-4.5c3.328-15,8.5-37.328,15.5-67
		c2.328-11.328,5.164-28.164,8.5-50.5c3.328-22.328,6.328-39.164,9-50.5c1-5.664,2.914-14.078,5.75-25.25
		c2.828-11.164,4.75-19.578,5.75-25.25c1-4,1.914-10.164,2.75-18.5c0.828-8.328,1.578-14.5,2.25-18.5c0.664-3,2.5-5.5,5.5-7.5
		c0.664-0.328,1.328-0.5,2-0.5c1.664,0,2.914,1.336,3.75,4c0.828,2.672,1.578,4.336,2.25,5c0.328,4,1.164,9.836,2.5,17.5
		c0.664-3.664,2.164-9.164,4.5-16.5c0-2-0.172-5-0.5-9c0-3,1.5-7.164,4.5-12.5c0.664,0.336,1.328,0.5,2,0.5
		c1.328,0,2.5-1.078,3.5-3.25c1-2.164,2.164-3.25,3.5-3.25c1,0.672,2.5,2,4.5,4c13-1,26.5-3,40.5-6c1,0,15-1.328,42-4
		c3.664-0.328,11.664-1.664,24-4c10-1.664,18-2.5,24-2.5C1134.151,27,1139.987,30,1138.987,36z M956.987,131
		c-5.336,21.336-12.5,53.5-21.5,96.5C941.151,206.172,948.315,174,956.987,131z"/>
	<path class="st1" d="M1304.984,170c-0.672,2.672-1.836,5.336-3.5,8c-2.672,4.336-6.5,9.336-11.5,15l-0.5-0.5
		c-1.672,3.336-3.336,5.5-5,6.5c-1.672,2.672-3.336,4.672-5,6l1,1c-11.336,10.336-22.672,20.836-34,31.5
		c-13.336,11.672-25.5,21-36.5,28v1c-1.336,0.672-2.836,1.672-4.5,3l-0.5-1c-0.672,0.672-1.5,2.172-2.5,4.5
		c-13.672,9.336-27.5,18.5-41.5,27.5c-15.672,10-30.336,17.336-44,22c-4.672,1.664-7.422,2.75-8.25,3.25
		c-0.836,0.5-3.086,2.578-6.75,6.25c-1,0.664-1.836,1-2.5,1c-0.672,0-1.5,0-2.5,0c-1-0.336-1.75-0.586-2.25-0.75
		c-0.5-0.172-2.922-1.422-7.25-3.75c-3-1.672-4-3.672-3-6c-3-9.328-3.664-18-2-26c0.328-2,1.5-3.5,3.5-4.5
		c6.328-4,16.164-9.664,29.5-17c1.328-1.328,3.664-3.164,7-5.5l0.5,2l0.5-2l4-2V267c1.328-2.328,3.664-4.664,7-7
		c4.664-2.664,7.578-4.414,8.75-5.25c1.164-0.828,3.078-1.914,5.75-3.25c-0.336-0.328-0.5-0.664-0.5-1c2.328-0.328,3.164-1,2.5-2
		c4-2.328,7.164-4,9.5-5c0.328-1,5.664-5.828,16-14.5l15.5-13.5c7-5.664,15.328-14.328,25-26c11-13,18.828-21.828,23.5-26.5l1-3
		c-0.672,0-3,0.672-7,2c-2.672,1-4.836,1.336-6.5,1c-8,2.672-19.5,7.5-34.5,14.5l-2.5-1l-1,2.5c-8.336,5.672-16.336,10.172-24,13.5
		c-3.672,2.672-8.672,5.172-15,7.5c-7.336,3-15,8.5-23,16.5c-1,0-2.086,0.75-3.25,2.25c-1.172,1.5-2.25,2.422-3.25,2.75
		c-1,2-2.672,4.672-5,8l-1,3c-1,4.336-0.672,7,1,8c-1.336,0.336-2.672,0.5-4,0.5c-3.672,0-8.672-2-15-6c-4-9-6-18.164-6-27.5
		c-5.672-5.664-6.672-17-3-34c6-27.664,17.164-54.5,33.5-80.5c0.664-1.664,2.328-4,5-7c-0.672-2.664,0.828-5.164,4.5-7.5
		c1.328-1.328,3-4,5-8c3.664-4.664,9.164-11.5,16.5-20.5v-1v-0.5c0.664-2.664,7.328-9.828,20-21.5
		c12.664-11.664,21.164-18.664,25.5-21h1c2.328,0,4.328,1,6,3c1.664,2,3.328,4,5,6l2,6.5c2.328-0.664,5.828-2,10.5-4l-1.5-1
		c3.328-1.664,5.828-2.5,7.5-2.5v1v0.5c0.664,0,1.328,0,2,0c-0.672,0,2.5,1.672,9.5,5c6,8.672,13,19.336,21,32
		c-0.336,2.672,0.75,6.25,3.25,10.75s3.414,8.422,2.75,11.75l-2,0.5l-0.5,3h-4.5l-1.5,1.5c-5.336-1-8.836-4.5-10.5-10.5
		c-1.672-6-4.5-10-8.5-12c-6.336,1-11,3.836-14,8.5c-9,6.672-17.336,14.5-25,23.5c-8,4.672-16.336,13.5-25,26.5
		c-11.336,16.672-18.5,26.5-21.5,29.5c-1,4.672-2.336,7.172-4,7.5c0.328,0.672,0.828,1,1.5,1c0.328,0,1.078-0.578,2.25-1.75
		c1.164-1.164,2.414-1.578,3.75-1.25l4-1l1.5-1l-1-1h0.5l0.5,1c1.664-0.664,4.164-1.5,7.5-2.5c0-0.664,0.578-1.328,1.75-2
		c1.164-0.664,2.078-1.328,2.75-2c0.328,0.672,0.664,1,1,1c2.328-1.664,3.828-2.5,4.5-2.5l2.5,2l-0.5-1.5l7-2l1,0.5l0.5-2.5l2-1
		l2.5-1.5l-0.5,1.5c1.664,0,3.75-1,6.25-3s5.078-3,7.75-3c0,0.336,0.164,0.5,0.5,0.5c2,0,3-0.164,3-0.5c2.328-0.664,6-2.5,11-5.5
		c0.664,0.672,2.164,1,4.5,1c5.664-2.664,10.5-4.328,14.5-5c0.664-1.664,1.328-2.5,2-2.5c0.328,0,0.75,0.25,1.25,0.75
		s0.914,0.75,1.25,0.75c0.664,0,1.5-0.664,2.5-2h1c1,0,2.25-0.578,3.75-1.75c1.5-1.164,2.578-1.75,3.25-1.75
		c0.664,0,1.328,0.336,2,1c5.328-1,12.328-3.164,21-6.5c1.664-1,3.164-1.5,4.5-1.5l2,0.5c1.328,3,3.328,7.336,6,13l-1,2
		c-0.336,1.672,0.328,3.672,2,6c1.664,2.336,2.328,4.336,2,6c2.328,0.672,4.164,2.336,5.5,5c-0.672,2.336-1.5,6.172-2.5,11.5
		c-10,11.336-21.836,24.672-35.5,40c-3,3-6.672,6.836-11,11.5v-0.5c-11,9.672-19.336,19.336-25,29l-1-0.5
		c-2.336,3.336-5.172,5.5-8.5,6.5c-2.336,2.672-5.5,6.672-9.5,12c-1.336,0-2.836,1-4.5,3c-1.672,2-3,3.172-4,3.5
		c-4,3.672-7.836,7.336-11.5,11c-5,4.336-9.5,7.172-13.5,8.5c-3.672,2.672-8.336,7.172-14,13.5c3-1,7-3.328,12-7h1.5
		c6-5.328,14.828-12.328,26.5-21c1.664-2.328,3.664-4.164,6-5.5c2.328-1.328,5.328-3.828,9-7.5c1.328-0.664,2.664-1.664,4-3
		c2,0,3.578-0.914,4.75-2.75c1.164-1.828,2.5-3.078,4-3.75c1.5-0.664,3.578-2.164,6.25-4.5c0-1.328,1-2.25,3-2.75
		s2.828-1.414,2.5-2.75c0.664-0.328,4-3.328,10-9c2-0.328,3.578-1.5,4.75-3.5c1.164-2,2.914-3.328,5.25-4
		c1.328-1.328,3.328-3.328,6-6c1.328-0.664,5-4.164,11-10.5c0.328-1.664,3.328-5.328,9-11c5.664-5.664,9.5-12.164,11.5-19.5l1.5-4
		l4-0.5C1305.313,163.172,1305.648,166.336,1304.984,170z M1114.484,147.5v-2c-2,3.336-3.836,5.672-5.5,7c0.328,0,0.664,0.5,1,1.5
		c0,0.336-0.336,1-1,2l-1,0.5c-0.672,0.672-1.172,1.172-1.5,1.5c0,0.336,0.5,0.5,1.5,0.5c-1.672,2-2.672,3.672-3,5c0,1,0,2.672,0,5
		c-0.336,1.336-1.172,2.836-2.5,4.5l1.5,1L1114.484,147.5z M1122.984,127.5c-0.672,0.336-1.336,1.836-2,4.5
		c-0.336,0.672-1.336,1.172-3,1.5c-1.672,3.336-2.672,6.172-3,8.5c-0.336,0.672-0.172,1.5,0.5,2.5c1.664-1.664,3-5.328,4-11h1
		L1122.984,127.5z M1130.484,113.5c-0.672,1.336-1.836,3.172-3.5,5.5C1127.984,117.672,1129.148,115.836,1130.484,113.5z
		 M1145.984,87.5c-3,4.336-5.836,7.336-8.5,9c0.328,0.672,0.5,1.172,0.5,1.5c-0.336,0.672-0.922,1.586-1.75,2.75
		c-0.836,1.172-1.25,2.086-1.25,2.75c0,0.672,0,1.172,0,1.5C1138.984,99.672,1142.648,93.836,1145.984,87.5z"/>
</g>
</svg>
